<svg width="30" height="30" viewBox="0 0 30 30" fill="none" xmlns="http://www.w3.org/2000/svg">
<g clip-path="url(#clip0_13659_6092)">
<path d="M1.07141 24.6426C1.07141 24.6426 5.35713 20.3569 15 20.3569C24.6428 20.3569 28.9286 24.6426 28.9286 24.6426" stroke="#6B8F71" stroke-linecap="round" stroke-linejoin="round"/>
<path d="M15 20.3569V28.9284" stroke="#6B8F71" stroke-linecap="round" stroke-linejoin="round"/>
<path d="M5.35712 28.9285L12.8571 20.4214" stroke="#6B8F71" stroke-linecap="round" stroke-linejoin="round"/>
<path d="M24.6428 28.9285L17.1428 20.4214" stroke="#6B8F71" stroke-linecap="round" stroke-linejoin="round"/>
<path d="M7.58516 16.0714C7.55251 15.715 7.55251 15.3564 7.58516 15C7.58516 13.0109 8.37534 11.1032 9.78186 9.6967C11.1884 8.29018 13.096 7.5 15.0852 7.5C17.0743 7.5 18.9819 8.29018 20.3885 9.6967C21.795 11.1032 22.5852 13.0109 22.5852 15C22.6178 15.3564 22.6178 15.715 22.5852 16.0714" stroke="#6B8F71" stroke-linecap="round" stroke-linejoin="round"/>
<path d="M1.07141 15H3.21427" stroke="#6B8F71" stroke-linecap="round" stroke-linejoin="round"/>
<path d="M5.35712 5.35693L6.42855 6.42836" stroke="#6B8F71" stroke-linecap="round" stroke-linejoin="round"/>
<path d="M15 1.07129V3.21415" stroke="#6B8F71" stroke-linecap="round" stroke-linejoin="round"/>
<path d="M24.6428 5.35693L23.5714 6.42836" stroke="#6B8F71" stroke-linecap="round" stroke-linejoin="round"/>
<path d="M28.9286 15H26.7857" stroke="#6B8F71" stroke-linecap="round" stroke-linejoin="round"/>
</g>
<defs>
<clipPath id="clip0_13659_6092">
<rect width="30" height="30" fill="white"/>
</clipPath>
</defs>
</svg>
